<mxfile host="app.diagrams.net" modified="2023-10-16T00:53:18.473Z" agent="Mozilla/5.0 (Windows NT 10.0; Win64; x64; rv:109.0) Gecko/20100101 Firefox/118.0" etag="Fc5fEFPKkoX0aKPSU4hV" version="22.0.4" type="github">
  <diagram name="Page-1" id="vr8ouLnIL1FIKy-SXpX5">
    <mxGraphModel dx="880" dy="470" grid="1" gridSize="10" guides="1" tooltips="1" connect="1" arrows="1" fold="1" page="1" pageScale="1" pageWidth="850" pageHeight="1100" math="0" shadow="0">
      <root>
        <mxCell id="0" />
        <mxCell id="1" parent="0" />
        <mxCell id="yuwgavQBLWMsni7R9jkU-1" value="MULAI" style="strokeWidth=2;html=1;shape=mxgraph.flowchart.start_1;whiteSpace=wrap;" vertex="1" parent="1">
          <mxGeometry x="375" y="30" width="100" height="60" as="geometry" />
        </mxCell>
        <mxCell id="yuwgavQBLWMsni7R9jkU-6" style="edgeStyle=orthogonalEdgeStyle;rounded=0;orthogonalLoop=1;jettySize=auto;html=1;exitX=0.5;exitY=1;exitDx=0;exitDy=0;entryX=0.5;entryY=0;entryDx=0;entryDy=0;" edge="1" parent="1" source="yuwgavQBLWMsni7R9jkU-2" target="yuwgavQBLWMsni7R9jkU-4">
          <mxGeometry relative="1" as="geometry" />
        </mxCell>
        <mxCell id="yuwgavQBLWMsni7R9jkU-2" value="&lt;font style=&quot;font-size: 10px;&quot;&gt;MENETAPKAN BILANGAN GANJIL DAN GENAP&lt;br&gt;&lt;/font&gt;" style="shape=parallelogram;html=1;strokeWidth=2;perimeter=parallelogramPerimeter;whiteSpace=wrap;rounded=1;arcSize=12;size=0.23;" vertex="1" parent="1">
          <mxGeometry x="380" y="130" width="100" height="60" as="geometry" />
        </mxCell>
        <mxCell id="yuwgavQBLWMsni7R9jkU-3" style="edgeStyle=orthogonalEdgeStyle;rounded=0;orthogonalLoop=1;jettySize=auto;html=1;exitX=0.5;exitY=1;exitDx=0;exitDy=0;exitPerimeter=0;entryX=0.44;entryY=-0.067;entryDx=0;entryDy=0;entryPerimeter=0;" edge="1" parent="1" source="yuwgavQBLWMsni7R9jkU-1" target="yuwgavQBLWMsni7R9jkU-2">
          <mxGeometry relative="1" as="geometry" />
        </mxCell>
        <mxCell id="yuwgavQBLWMsni7R9jkU-8" style="edgeStyle=orthogonalEdgeStyle;rounded=0;orthogonalLoop=1;jettySize=auto;html=1;" edge="1" parent="1" source="yuwgavQBLWMsni7R9jkU-4" target="yuwgavQBLWMsni7R9jkU-7">
          <mxGeometry relative="1" as="geometry" />
        </mxCell>
        <mxCell id="yuwgavQBLWMsni7R9jkU-4" value="DIBAGI 2" style="rounded=1;whiteSpace=wrap;html=1;absoluteArcSize=1;arcSize=14;strokeWidth=2;" vertex="1" parent="1">
          <mxGeometry x="380" y="230" width="100" height="100" as="geometry" />
        </mxCell>
        <mxCell id="yuwgavQBLWMsni7R9jkU-9" value="BISA" style="edgeStyle=orthogonalEdgeStyle;rounded=0;orthogonalLoop=1;jettySize=auto;html=1;exitX=1;exitY=0.5;exitDx=0;exitDy=0;exitPerimeter=0;entryX=0;entryY=0.5;entryDx=0;entryDy=0;" edge="1" parent="1" source="yuwgavQBLWMsni7R9jkU-7" target="yuwgavQBLWMsni7R9jkU-20">
          <mxGeometry relative="1" as="geometry">
            <mxPoint x="580" y="410" as="targetPoint" />
          </mxGeometry>
        </mxCell>
        <mxCell id="yuwgavQBLWMsni7R9jkU-7" value="BILANGAN DIBAGI DENGAN 2" style="strokeWidth=2;html=1;shape=mxgraph.flowchart.decision;whiteSpace=wrap;" vertex="1" parent="1">
          <mxGeometry x="380" y="360" width="100" height="100" as="geometry" />
        </mxCell>
        <mxCell id="yuwgavQBLWMsni7R9jkU-16" value="FINISH" style="strokeWidth=2;html=1;shape=mxgraph.flowchart.start_1;whiteSpace=wrap;" vertex="1" parent="1">
          <mxGeometry x="380" y="660" width="100" height="60" as="geometry" />
        </mxCell>
        <mxCell id="yuwgavQBLWMsni7R9jkU-17" style="edgeStyle=orthogonalEdgeStyle;rounded=0;orthogonalLoop=1;jettySize=auto;html=1;entryX=0.5;entryY=0;entryDx=0;entryDy=0;entryPerimeter=0;" edge="1" parent="1" target="yuwgavQBLWMsni7R9jkU-16">
          <mxGeometry relative="1" as="geometry">
            <mxPoint x="430" y="610" as="sourcePoint" />
          </mxGeometry>
        </mxCell>
        <mxCell id="yuwgavQBLWMsni7R9jkU-18" style="edgeStyle=orthogonalEdgeStyle;rounded=0;orthogonalLoop=1;jettySize=auto;html=1;entryX=1;entryY=0.5;entryDx=0;entryDy=0;entryPerimeter=0;exitX=1;exitY=0.5;exitDx=0;exitDy=0;" edge="1" parent="1" source="yuwgavQBLWMsni7R9jkU-20" target="yuwgavQBLWMsni7R9jkU-16">
          <mxGeometry relative="1" as="geometry">
            <mxPoint x="680" y="410" as="sourcePoint" />
            <Array as="points">
              <mxPoint x="770" y="410" />
              <mxPoint x="770" y="690" />
            </Array>
          </mxGeometry>
        </mxCell>
        <mxCell id="yuwgavQBLWMsni7R9jkU-19" value="GANJIL" style="shape=parallelogram;html=1;strokeWidth=2;perimeter=parallelogramPerimeter;whiteSpace=wrap;rounded=1;arcSize=12;size=0.23;" vertex="1" parent="1">
          <mxGeometry x="375" y="550" width="100" height="60" as="geometry" />
        </mxCell>
        <mxCell id="yuwgavQBLWMsni7R9jkU-20" value="GENAP" style="shape=parallelogram;html=1;strokeWidth=2;perimeter=parallelogramPerimeter;whiteSpace=wrap;rounded=1;arcSize=12;size=0.23;" vertex="1" parent="1">
          <mxGeometry x="580" y="380" width="100" height="60" as="geometry" />
        </mxCell>
        <mxCell id="yuwgavQBLWMsni7R9jkU-26" style="edgeStyle=orthogonalEdgeStyle;rounded=0;orthogonalLoop=1;jettySize=auto;html=1;entryX=0.55;entryY=0.167;entryDx=0;entryDy=0;entryPerimeter=0;" edge="1" parent="1" source="yuwgavQBLWMsni7R9jkU-7" target="yuwgavQBLWMsni7R9jkU-19">
          <mxGeometry relative="1" as="geometry" />
        </mxCell>
        <mxCell id="yuwgavQBLWMsni7R9jkU-27" value="TIDAK BISA" style="edgeLabel;html=1;align=center;verticalAlign=middle;resizable=0;points=[];" vertex="1" connectable="0" parent="yuwgavQBLWMsni7R9jkU-26">
          <mxGeometry x="-0.1002" relative="1" as="geometry">
            <mxPoint as="offset" />
          </mxGeometry>
        </mxCell>
      </root>
    </mxGraphModel>
  </diagram>
</mxfile>
